<svg width="19" height="19" viewBox="0 0 19 19" fill="none" xmlns="http://www.w3.org/2000/svg">
<mask id="mask0_704_1731" style="mask-type:alpha" maskUnits="userSpaceOnUse" x="0" y="3" width="19" height="13">
<rect y="3" width="19" height="13" rx="2" fill="#D9D9D9"></rect>
</mask>
<g mask="url(#mask0_704_1731)">
<path fill-rule="evenodd" clip-rule="evenodd" d="M0 3H19V4H0V3ZM0 5H19V6H0V5ZM0 7H19V8H0V7ZM0 9H19V10H0V9ZM0 11H19V12H0V11ZM0 13H19V14H0V13ZM0 15H19V16H0V15Z" fill="#BD3D44"></path>
<path fill-rule="evenodd" clip-rule="evenodd" d="M0 4H19V5H0V4ZM0 6H19V7H0V6ZM0 8H19V9H0V8ZM0 10H19V11H0V10ZM0 12H19V13H0V12ZM0 14H19V15H0V14Z" fill="white"></path>
<path fill-rule="evenodd" clip-rule="evenodd" d="M0 3H10V11H0V3Z" fill="#192F5D"></path>
<path fill-rule="evenodd" clip-rule="evenodd" d="M1.52021 4L1.66081 4.47727H2.05448L1.73111 4.76705L1.85764 5.22727L1.52021 4.9375L1.2109 5.22727L1.33743 4.76705L1 4.47727H1.42179L1.52021 4ZM3.84007 4L3.96661 4.47727H4.37434L4.03691 4.76705L4.1775 5.22727L3.84007 4.9375L3.50264 5.22727L3.64323 4.76705L3.3058 4.47727H3.71353L3.84007 4ZM6.15993 4L6.28647 4.47727H6.6942L6.35677 4.76705L6.49736 5.22727L6.15993 4.9375L5.8225 5.22727L5.96309 4.76705L5.62566 4.47727H6.03339L6.15993 4ZM8.46573 4L8.60633 4.47727H9L8.67662 4.76705L8.80316 5.22727L8.46573 4.9375L8.14235 5.22727L8.26889 4.76705L7.93146 4.47727H8.35325L8.46573 4ZM2.68717 5.19318L2.81371 5.67045H3.22144L2.88401 5.96023L3.0246 6.42045L2.68717 6.13068L2.34974 6.42045L2.49033 5.96023L2.1529 5.67045H2.56063L2.68717 5.19318ZM4.99297 5.19318L5.13357 5.67045H5.52724L5.20387 5.96023L5.3304 6.42045L4.99297 6.13068L4.6696 6.42045L4.79613 5.96023L4.4587 5.67045H4.88049L4.99297 5.19318ZM7.31283 5.19318L7.43937 5.67045H7.8471L7.50967 5.96023L7.65026 6.42045L7.31283 6.13068L6.9754 6.42045L7.11599 5.96023L6.77856 5.67045H7.18629L7.31283 5.19318ZM1.53427 6.38636L1.64675 6.86364H2.06854L1.73111 7.15341L1.85764 7.61364L1.52021 7.32386L1.2109 7.61364L1.33743 7.15341L1 6.86364H1.42179L1.53427 6.38636ZM3.84007 6.38636L3.96661 6.86364H4.37434L4.05097 7.15341L4.1775 7.61364L3.84007 7.32386L3.5167 7.61364L3.64323 7.15341L3.3058 6.86364H3.71353L3.84007 6.38636ZM6.15993 6.38636L6.28647 6.86364H6.6942L6.35677 7.15341L6.49736 7.61364L6.15993 7.32386L5.8225 7.61364L5.96309 7.15341L5.62566 6.86364H6.03339L6.15993 6.38636ZM8.46573 6.38636L8.60633 6.86364H9L8.67662 7.15341L8.80316 7.61364L8.46573 7.32386L8.14235 7.61364L8.26889 7.15341L7.93146 6.86364H8.35325L8.46573 6.38636ZM2.68717 7.57955L2.81371 8.05682H3.22144L2.88401 8.34659L3.0246 8.80682L2.68717 8.51705L2.34974 8.80682L2.49033 8.34659L2.1529 8.05682H2.56063L2.68717 7.57955ZM4.99297 7.57955L5.13357 8.05682H5.52724L5.20387 8.34659L5.3304 8.80682L4.99297 8.51705L4.6696 8.80682L4.79613 8.34659L4.4587 8.05682H4.88049L4.99297 7.57955ZM7.31283 7.57955L7.43937 8.05682H7.8471L7.52373 8.34659L7.65026 8.80682L7.31283 8.51705L6.98945 8.80682L7.11599 8.34659L6.77856 8.05682H7.18629L7.31283 7.57955ZM1.53427 8.77273L1.64675 9.25H2.06854L1.73111 9.53977L1.85764 10L1.52021 9.71023L1.2109 10L1.33743 9.53977L1 9.25H1.42179L1.53427 8.77273ZM3.84007 8.77273L3.96661 9.25H4.37434L4.05097 9.53977L4.1775 10L3.84007 9.71023L3.5167 10L3.64323 9.53977L3.3058 9.25H3.71353L3.84007 8.77273ZM6.15993 8.77273L6.28647 9.25H6.6942L6.35677 9.53977L6.49736 10L6.15993 9.71023L5.8225 10L5.96309 9.53977L5.62566 9.25H6.03339L6.15993 8.77273ZM8.46573 8.77273L8.60633 9.25H9L8.67662 9.53977L8.80316 10L8.46573 9.71023L8.14235 10L8.26889 9.53977L7.93146 9.25H8.35325L8.46573 8.77273Z" fill="white"></path>
</g>
</svg>