<svg width="19" height="19" viewBox="0 0 19 19" fill="none" xmlns="http://www.w3.org/2000/svg">
<mask id="mask0_704_1732" style="mask-type:alpha" maskUnits="userSpaceOnUse" x="3" y="3" width="13" height="13">
<rect x="3" y="3" width="13" height="13" rx="6.5" fill="#D9D9D9"></rect>
</mask>
<g mask="url(#mask0_704_1732)">
<path fill-rule="evenodd" clip-rule="evenodd" d="M3 3H16V4H3V3ZM3 5H16V6H3V5ZM3 7H16V8H3V7ZM3 9H16V10H3V9ZM3 11H16V12H3V11ZM3 13H16V14H3V13ZM3 15H16V16H3V15Z" fill="#BD3D44"></path>
<path fill-rule="evenodd" clip-rule="evenodd" d="M3 4H16V5H3V4ZM3 6H16V7H3V6ZM3 8H16V9H3V8ZM3 10H16V11H3V10ZM3 12H16V13H3V12ZM3 14H16V15H3V14Z" fill="white"></path>
<path fill-rule="evenodd" clip-rule="evenodd" d="M3 3H13V11H3V3Z" fill="#192F5D"></path>
<path fill-rule="evenodd" clip-rule="evenodd" d="M4.52021 4L4.66081 4.47727H5.05448L4.73111 4.76705L4.85764 5.22727L4.52021 4.9375L4.2109 5.22727L4.33743 4.76705L4 4.47727H4.42179L4.52021 4ZM6.84007 4L6.96661 4.47727H7.37434L7.03691 4.76705L7.1775 5.22727L6.84007 4.9375L6.50264 5.22727L6.64323 4.76705L6.3058 4.47727H6.71353L6.84007 4ZM9.15993 4L9.28647 4.47727H9.6942L9.35677 4.76705L9.49736 5.22727L9.15993 4.9375L8.8225 5.22727L8.96309 4.76705L8.62566 4.47727H9.03339L9.15993 4ZM11.4657 4L11.6063 4.47727H12L11.6766 4.76705L11.8032 5.22727L11.4657 4.9375L11.1424 5.22727L11.2689 4.76705L10.9315 4.47727H11.3533L11.4657 4ZM5.68717 5.19318L5.81371 5.67045H6.22144L5.88401 5.96023L6.0246 6.42045L5.68717 6.13068L5.34974 6.42045L5.49033 5.96023L5.1529 5.67045H5.56063L5.68717 5.19318ZM7.99297 5.19318L8.13357 5.67045H8.52724L8.20387 5.96023L8.3304 6.42045L7.99297 6.13068L7.6696 6.42045L7.79613 5.96023L7.4587 5.67045H7.88049L7.99297 5.19318ZM10.3128 5.19318L10.4394 5.67045H10.8471L10.5097 5.96023L10.6503 6.42045L10.3128 6.13068L9.9754 6.42045L10.116 5.96023L9.77856 5.67045H10.1863L10.3128 5.19318ZM4.53427 6.38636L4.64675 6.86364H5.06854L4.73111 7.15341L4.85764 7.61364L4.52021 7.32386L4.2109 7.61364L4.33743 7.15341L4 6.86364H4.42179L4.53427 6.38636ZM6.84007 6.38636L6.96661 6.86364H7.37434L7.05097 7.15341L7.1775 7.61364L6.84007 7.32386L6.5167 7.61364L6.64323 7.15341L6.3058 6.86364H6.71353L6.84007 6.38636ZM9.15993 6.38636L9.28647 6.86364H9.6942L9.35677 7.15341L9.49736 7.61364L9.15993 7.32386L8.8225 7.61364L8.96309 7.15341L8.62566 6.86364H9.03339L9.15993 6.38636ZM11.4657 6.38636L11.6063 6.86364H12L11.6766 7.15341L11.8032 7.61364L11.4657 7.32386L11.1424 7.61364L11.2689 7.15341L10.9315 6.86364H11.3533L11.4657 6.38636ZM5.68717 7.57955L5.81371 8.05682H6.22144L5.88401 8.34659L6.0246 8.80682L5.68717 8.51705L5.34974 8.80682L5.49033 8.34659L5.1529 8.05682H5.56063L5.68717 7.57955ZM7.99297 7.57955L8.13357 8.05682H8.52724L8.20387 8.34659L8.3304 8.80682L7.99297 8.51705L7.6696 8.80682L7.79613 8.34659L7.4587 8.05682H7.88049L7.99297 7.57955ZM10.3128 7.57955L10.4394 8.05682H10.8471L10.5237 8.34659L10.6503 8.80682L10.3128 8.51705L9.98945 8.80682L10.116 8.34659L9.77856 8.05682H10.1863L10.3128 7.57955ZM4.53427 8.77273L4.64675 9.25H5.06854L4.73111 9.53977L4.85764 10L4.52021 9.71023L4.2109 10L4.33743 9.53977L4 9.25H4.42179L4.53427 8.77273ZM6.84007 8.77273L6.96661 9.25H7.37434L7.05097 9.53977L7.1775 10L6.84007 9.71023L6.5167 10L6.64323 9.53977L6.3058 9.25H6.71353L6.84007 8.77273ZM9.15993 8.77273L9.28647 9.25H9.6942L9.35677 9.53977L9.49736 10L9.15993 9.71023L8.8225 10L8.96309 9.53977L8.62566 9.25H9.03339L9.15993 8.77273ZM11.4657 8.77273L11.6063 9.25H12L11.6766 9.53977L11.8032 10L11.4657 9.71023L11.1424 10L11.2689 9.53977L10.9315 9.25H11.3533L11.4657 8.77273Z" fill="white"></path>
</g>
</svg>