<svg width="19" height="19" viewBox="0 0 19 19" fill="none" xmlns="http://www.w3.org/2000/svg">
<mask id="mask0_704_1748" style="mask-type:alpha" maskUnits="userSpaceOnUse" x="3" y="3" width="13" height="13">
<rect x="3" y="3" width="13" height="13" rx="6.5" fill="#D9D9D9"></rect>
</mask>
<g mask="url(#mask0_704_1748)">
<path d="M16.8889 3H2.11111C0.94525 3 0 3.8955 0 5V14C0 15.1045 0.94525 16 2.11111 16H16.8889C18.0548 16 19 15.1045 19 14V5C19 3.8955 18.0548 3 16.8889 3Z" fill="#003399"></path>
<path d="M9.74192 5.72872L10.123 5.45032H9.65216L9.50628 5L9.36086 5.45032H8.89004L9.2711 5.72872L9.12523 6.17903L9.50628 5.90063L9.88734 6.17903L9.74192 5.72872ZM9.74192 13.5497L10.123 13.2713H9.65216L9.50628 12.821L9.36086 13.2713H8.89004L9.2711 13.5497L9.12523 14L9.50628 13.7216L9.88734 14L9.74192 13.5497ZM5.85233 9.63898L6.23339 9.36057H5.76212L5.6167 8.91026L5.47083 9.36057H5L5.38106 9.63898L5.23564 10.0893L5.6167 9.81089L5.99776 10.0893L5.85233 9.63898ZM6.34919 7.70551L6.73025 7.4271H6.25898L6.11355 6.97679L5.96813 7.4271H5.49686L5.87792 7.70551L5.7325 8.15582L6.11355 7.87742L6.49461 8.15582L6.34919 7.70551ZM6.34919 11.5946L6.73025 11.3162H6.25898L6.11355 10.8658L5.96813 11.3162H5.49686L5.87792 11.5946L5.7325 12.0449L6.11355 11.7665L6.49461 12.0449L6.34919 11.5946ZM7.79713 6.25258L8.17819 5.97418H7.70691L7.56149 5.52386L7.41607 5.97418H6.94479L7.32585 6.25258L7.18043 6.7029L7.56149 6.4245L7.94255 6.7029L7.79713 6.25258ZM7.79713 13.0511L8.17819 12.7727H7.70691L7.56149 12.3224L7.41607 12.7727H6.94479L7.32585 13.0511L7.18043 13.5014L7.56149 13.2235L7.94255 13.5014L7.79713 13.0511ZM13.1477 9.63898L12.7666 9.36057H13.2379L13.3833 8.91026L13.5292 9.36057H14L13.6189 9.63898L13.7644 10.0893L13.3833 9.81089L13.0022 10.0893L13.1477 9.63898ZM12.6508 7.70551L12.2697 7.4271H12.741L12.8864 6.97679L13.0319 7.4271H13.5031L13.1221 7.70551L13.2675 8.15582L12.8864 7.87742L12.5054 8.15582L12.6508 7.70551ZM12.6508 11.5946L12.2697 11.3162H12.741L12.8864 10.8658L13.0319 11.3162H13.5031L13.1221 11.5946L13.2675 12.0449L12.8864 11.7665L12.5054 12.0449L12.6508 11.5946ZM11.2029 6.25258L10.8218 5.97418H11.2931L11.4385 5.52386L11.5839 5.97418H12.0552L11.6741 6.25258L11.8196 6.7029L11.4385 6.4245L11.0575 6.7029L11.2029 6.25258ZM11.2029 13.0511L10.8218 12.7727H11.2931L11.4385 12.3224L11.5839 12.7727H12.0552L11.6741 13.0511L11.8196 13.5014L11.4385 13.2235L11.0575 13.5014L11.2029 13.0511Z" fill="#FFCC00"></path>
</g>
</svg>