<svg width="19" height="19" viewBox="0 0 19 19" fill="none" xmlns="http://www.w3.org/2000/svg">
<mask id="mask0_704_1652" style="mask-type:alpha" maskUnits="userSpaceOnUse" x="3" y="3" width="13" height="13">
<rect x="3" y="3" width="13" height="13" rx="6.5" fill="#D9D9D9"></rect>
</mask>
<g mask="url(#mask0_704_1652)">
<path fill-rule="evenodd" clip-rule="evenodd" d="M0 3H6.33333V16H0V3Z" fill="#006923"></path>
<path fill-rule="evenodd" clip-rule="evenodd" d="M6.33333 3H12.6667V16H6.33333V3Z" fill="white"></path>
<path fill-rule="evenodd" clip-rule="evenodd" d="M12.6667 3H19V16H12.6667V3Z" fill="#D9071E"></path>
<path d="M8.32197 7.30493C8.26757 7.38762 8.22428 7.45955 8.1921 7.51881C8.29858 7.54782 8.37198 7.68523 8.45282 7.75319C8.66908 7.93502 8.64259 8.13777 8.3454 8.35771C8.2879 8.40028 8.42035 8.5123 8.36884 8.65167C8.51064 8.65888 8.6123 8.6784 8.70572 8.72882C8.96794 8.87045 8.94355 9.12904 8.7438 9.32845C8.60217 9.46982 8.41224 9.58418 8.23409 9.64292C7.93779 9.74049 7.62086 9.70285 7.62086 9.35678C7.62074 9.34318 7.61189 9.31669 7.75171 9.31381C7.52585 9.31089 7.43277 8.74432 7.42947 8.67999C7.42936 8.25021 7.23052 8.25029 7.23027 8.25029V8.01883H7.57497C7.76986 8.01906 7.71537 8.23334 7.7771 8.35771C7.79205 8.33321 7.81656 9.06889 7.8972 9.00715C7.92726 8.98408 8.15673 9.24754 8.1921 9.13216C8.21806 9.04499 8.06394 8.70451 8.06418 8.55987C8.06483 8.22318 8.18097 8.03227 8.1921 8.01883C8.1425 8.00317 8.0682 7.82398 8.03489 7.82351C7.72993 7.82351 7.68872 7.76511 7.75171 7.51881C7.78543 7.38705 7.6703 7.24281 7.81323 7.02563L8.32197 7.30493ZM7.75171 9.31381C7.75968 9.31364 7.76813 9.31283 7.7771 9.31283C7.77419 9.31283 7.77116 9.31286 7.76831 9.31283L7.75171 9.31381ZM8.2956 8.97199L8.30244 8.96614C8.30333 8.96476 8.30444 8.96316 8.30537 8.96223C8.30234 8.96525 8.29873 8.96901 8.2956 8.97199Z" fill="#A8AC71"></path>
<path fill-rule="evenodd" clip-rule="evenodd" d="M8.54057 7.28642C8.54057 7.28642 8.13278 7.57494 8.20904 7.88254C8.2853 8.19014 9.08895 7.88254 8.9918 7.58448C8.89465 7.28642 8.54057 7.28642 8.54057 7.28642Z" fill="#FCCA3D"></path>
<path fill-rule="evenodd" clip-rule="evenodd" d="M11.4395 9.71823C11.4395 9.71823 11.9887 8.23334 11.1156 7.46469C10.2426 6.69605 9.23377 6.74748 9.23377 6.74748C9.23377 6.74748 8.94325 6.9444 9.23377 7.09458C9.52429 7.24476 9.40257 7.38876 9.40257 7.38876C9.40257 7.38876 8.91603 6.93807 8.59304 7.20138C8.27005 7.46469 8.89455 7.42462 8.82844 7.62288C8.76233 7.82114 8.48225 8.70138 8.89151 9.14579C9.30076 9.5902 8.50457 9.49375 8.6665 9.49375C8.82844 9.49375 9.40257 9.59719 9.40257 9.49375C9.40257 9.3903 9.60217 9.89593 9.77298 9.89593C9.94379 9.89593 10.0756 9.71823 10.0756 9.71823C10.0756 9.71823 10.3151 9.89593 10.461 9.89593C10.6069 9.89593 11.1156 9.77964 11.1156 9.77964L10.1541 9.04052C10.1541 9.04052 10.212 8.71451 10.0756 8.64395C9.93923 8.57339 11.1692 9.26927 11.2655 9.49375C11.3618 9.71823 11.4395 9.71823 11.4395 9.71823Z" fill="#8F4620"></path>
<path d="M6.57071 9.3519C6.57071 9.3519 6.65986 9.09268 6.75531 9.07468C6.838 9.05909 7.01189 9.19891 7.01189 9.19891C7.32078 10.7642 8.06768 11.3756 9.30699 11.3756C10.5609 11.3756 11.3208 10.9111 11.7643 9.46738C11.7643 9.46738 12.0001 9.24774 12.0832 9.27215C12.1738 9.29873 12.2873 9.58933 12.2873 9.58933C11.7785 11.2455 10.8173 11.9829 9.30699 11.9829C7.78211 11.9829 6.92538 11.1493 6.57071 9.3519Z" fill="#9FAB2F"></path>
<path fill-rule="evenodd" clip-rule="evenodd" d="M7.9172 10.3972C7.9172 10.3972 9.70104 10.7425 10.4051 10.7425C11.1092 10.7425 9.78735 11.2667 9.27158 11.2667C9.04597 11.2667 8.77402 11.1419 8.45574 10.8924C8.39871 10.8476 8.45396 10.7475 8.28018 10.7462C8.03788 10.7443 7.73685 10.6924 7.76566 10.6608C7.79304 10.6308 8.14559 10.6217 8.11161 10.5888C8.05555 10.5346 7.9172 10.3972 7.9172 10.3972Z" fill="#2FC2DC"></path>
<path d="M8.70833 10.7226C8.70833 10.6756 8.74642 10.6375 8.7934 10.6375H9.81076C9.85774 10.6375 9.89583 10.6756 9.89583 10.7226V11.1328C9.89583 11.1798 9.85774 11.2178 9.81076 11.2178H8.7934C8.74642 11.2178 8.70833 11.1798 8.70833 11.1328V10.7226Z" fill="#F9AA51"></path>
<path d="M7.22922 9.5736C7.22922 9.5736 7.22922 9.37044 7.38002 9.2625C7.55289 9.13878 7.71527 9.2625 7.71527 9.2625C8.34788 10.0851 9.29391 10.3557 10.617 10.0733C10.617 10.0733 11.0126 10.1912 11.0325 10.2687C11.0577 10.367 10.7523 10.6007 10.7523 10.6007C9.20558 10.9309 8.00999 10.5889 7.22922 9.5736Z" fill="#259485"></path>
<path fill-rule="evenodd" clip-rule="evenodd" d="M9.85111 9.68972C9.85111 9.68972 9.13049 10.0358 9.37069 10.0358C9.6109 10.0358 10.551 10.2088 10.3681 10.0358C10.1851 9.86275 9.85111 9.68972 9.85111 9.68972Z" fill="#FCCA3D"></path>
<path fill-rule="evenodd" clip-rule="evenodd" d="M8.99911 9.27695C8.99911 9.27695 8.86218 8.91617 8.57725 8.91617C8.29232 8.91617 8.37275 9.21212 8.23573 9.21212C8.0987 9.21212 8.3634 9.42039 8.48137 9.42039C8.59935 9.42039 8.99911 9.27695 8.99911 9.27695Z" fill="#FCCA3D"></path>
</g>
</svg>