<svg width="1005" height="130" viewBox="0 0 1005 130" fill="none" xmlns="http://www.w3.org/2000/svg">
<path d="M163.142 19.1138H221.901V129.352H246.304V19.1138H303.218V0H163.142V19.1138Z" fill="white"></path>
<path d="M324.487 19.1138H383.22V129.352H407.649V19.1138H466.382V0H324.487V19.1138Z" fill="white"></path>
<path d="M597.946 0H488.134V129.352H512.563V71.6632H580.687L610.977 129.352H637.065L606.589 71.2885C629.546 69.0933 638.537 57.1539 638.537 40.4227V31.2405C638.537 12.6889 627.326 0 597.946 0ZM614.108 40.6101C614.108 48.3198 608.97 52.5495 597.946 52.5495H512.536V19.1138H597.946C608.97 19.1138 614.108 23.3434 614.108 31.0531V40.6101Z" fill="white"></path>
<path d="M798.257 98.2993C798.257 106.009 793.12 110.239 782.096 110.239H701.85C690.826 110.239 685.689 106.009 685.689 98.2993V0H661.26V98.1119C661.26 116.664 672.47 129.352 701.85 129.352H787.26C816.64 129.352 822.713 116.664 822.713 98.1119V0H798.284V98.2993H798.257Z" fill="white"></path>
<path d="M963.641 50.9135H887.597C876.572 50.9135 871.434 46.6838 871.434 38.9741V31.077C871.434 23.3672 876.572 19.1375 887.597 19.1375H997.061V0.0238037H887.597C858.216 0.0238037 847.005 12.7128 847.005 31.2644V38.7867C847.005 57.3383 858.216 70.0272 887.597 70.0272H963.641C974.665 70.0272 979.803 74.2569 979.803 81.9666V98.3231C979.803 106.033 974.665 110.262 963.641 110.262H851.259V129.376H963.641C993.02 129.376 1004.23 116.687 1004.23 98.1358V82.1541C1004.23 63.6025 993.02 50.9135 963.641 50.9135Z" fill="white"></path>
<path d="M108.233 6.74605C105.184 2.677 100.34 0 94.8819 0C89.4234 0 84.4464 2.73056 81.3961 6.8799L80.6203 8.03098L0 129.352H27.1854L90.0923 32.6594L94.9622 25.1637L99.7248 32.6325L161.615 129.352H189.176L109.304 8.37901L108.233 6.74605Z" fill="white"></path>
</svg>