<svg width="1003" height="130" viewBox="0 0 1003 130" fill="none" xmlns="http://www.w3.org/2000/svg">
<path d="M163.142 19.1138H221.901V129.352H246.304V19.1138H303.218V0H163.142V19.1138Z" fill="#000033"></path>
<path d="M324.487 19.1138H383.22V129.352H407.649V19.1138H466.382V0H324.487V19.1138Z" fill="#000033"></path>
<path d="M597.946 0H488.134V129.352H512.563V71.6632H580.687L610.977 129.352H637.065L606.589 71.2885C629.546 69.0933 638.537 57.1539 638.537 40.4227V31.2405C638.537 12.6889 627.326 0 597.946 0ZM614.108 40.6101C614.108 48.3198 608.97 52.5495 597.946 52.5495H512.536V19.1138H597.946C608.97 19.1138 614.108 23.3434 614.108 31.0531V40.6101Z" fill="#000033"></path>
<path d="M798.257 98.2993C798.257 106.009 793.12 110.239 782.096 110.239H701.85C690.826 110.239 685.689 106.009 685.689 98.2993V0H661.26V98.1119C661.26 116.664 672.47 129.352 701.85 129.352H787.26C816.64 129.352 822.713 116.664 822.713 98.1119V0H798.284V98.2993H798.257Z" fill="#000033"></path>
<path d="M961.636 50.8897H885.592C874.567 50.8897 869.43 46.66 869.43 38.9503V31.0532C869.43 23.3434 874.567 19.1137 885.592 19.1137H995.057V0H885.592C856.211 0 845 12.689 845 31.2406V38.7629C845 57.3145 856.211 70.0034 885.592 70.0034H961.636C972.66 70.0034 977.798 74.2331 977.798 81.9428V98.2993C977.798 106.009 972.66 110.239 961.636 110.239H849.255V129.353H961.636C991.015 129.353 1002.23 116.663 1002.23 98.112V82.1303C1002.23 63.5787 991.015 50.8897 961.636 50.8897Z" fill="#000033"></path>
<path d="M108.233 6.74605C105.184 2.677 100.34 0 94.8819 0C89.4234 0 84.4464 2.73056 81.3961 6.8799L80.6203 8.03098L0 129.352H27.1854L90.0923 32.6594L94.9622 25.1637L99.7248 32.6325L161.615 129.352H189.176L109.304 8.37901L108.233 6.74605Z" fill="#000033"></path>
</svg>